<svg width="12" height="10" viewBox="0 0 12 10" fill="none" xmlns="http://www.w3.org/2000/svg">
    <path d="M5.22021 3.20069C5.22021 3.50392 5.22021 3.80845 5.22021 4.11168C5.22021 4.78164 5.22021 5.4529 5.22021 6.12287C5.22021 6.79672 5.22021 7.47057 5.22021 8.14442C5.22021 8.37379 5.22021 8.60316 5.22021 8.83253C5.22021 8.89991 5.22021 8.9673 5.22021 9.03598C5.22021 9.0606 5.21244 9.09818 5.22021 9.1228C5.21632 9.11114 5.25779 9.03857 5.23187 9.07356C5.23706 9.06578 5.30574 9.01136 5.26427 9.03468C5.27593 9.0282 5.3174 9.00488 5.32906 9.01395C5.32777 9.01395 5.32518 9.01395 5.32388 9.01395C5.29408 9.00877 5.25909 9.01395 5.22928 9.01395C5.08026 9.01395 4.93253 9.01395 4.7835 9.01395C4.49453 9.01395 4.20425 9.00617 3.91527 9.01395C3.91009 9.01395 3.89713 9.01136 3.89324 9.01395C3.90879 9.00488 3.98007 9.05282 3.94249 9.02561C3.96452 9.04116 3.97488 9.05153 3.98914 9.07226C3.96192 9.03339 4.01117 9.10596 4.0008 9.1228C4.00339 9.11891 4.0008 9.10855 4.0008 9.10466C4.0021 9.0619 4.0008 9.01913 4.0008 8.97766C4.0008 8.78717 4.0008 8.59668 4.0008 8.40619C4.0008 7.76084 4.0008 7.1168 4.0008 6.47146C4.0008 5.77817 4.0008 5.08358 4.0008 4.39029C4.0008 4.00283 4.0008 3.61666 4.0008 3.22919C4.0008 3.22142 4.00339 3.20976 4.0008 3.20198V3.20069C4.0008 3.18902 3.9995 3.20069 3.99562 3.23567C3.99043 3.24604 3.98525 3.25641 3.98136 3.26548C3.99303 3.24604 3.99173 3.24604 3.98007 3.26418C3.971 3.27066 3.91657 3.31213 3.95804 3.2901C3.94897 3.29528 3.90491 3.31861 3.89324 3.31083C3.89454 3.31213 3.89843 3.31083 3.89972 3.31083C3.99302 3.32379 4.09799 3.31083 4.19129 3.31083C4.52174 3.31083 4.85219 3.31083 5.18393 3.31083C5.2241 3.31083 5.26427 3.31213 5.30574 3.31083C5.31222 3.31083 5.32388 3.31343 5.32906 3.31083C5.31611 3.31602 5.28112 3.29917 5.26557 3.2901C5.30704 3.31343 5.23835 3.259 5.23317 3.25122C5.25779 3.28751 5.22151 3.21494 5.22021 3.20069C5.22799 3.33546 5.33425 3.46634 5.47939 3.45986C5.61286 3.45338 5.74633 3.34582 5.73856 3.20069C5.7256 2.97261 5.56103 2.79897 5.32906 2.79119C5.30185 2.7899 5.27593 2.79119 5.24872 2.79119C5.10358 2.79119 4.95974 2.79119 4.81461 2.79119C4.51396 2.79119 4.21332 2.7886 3.91398 2.79119C3.67683 2.79378 3.49023 2.96225 3.48375 3.20457C3.48245 3.23956 3.48375 3.27325 3.48375 3.30824C3.48375 3.49096 3.48375 3.67368 3.48375 3.85639C3.48375 4.50822 3.48375 5.16004 3.48375 5.81316C3.48375 6.52847 3.48375 7.24379 3.48375 7.96041C3.48375 8.34269 3.47857 8.72497 3.48375 9.10725C3.48634 9.34051 3.6574 9.52582 3.89454 9.5323C3.98266 9.53489 4.07207 9.5323 4.16019 9.5323C4.49841 9.5323 4.83663 9.5323 5.17615 9.5323C5.33684 9.5323 5.49494 9.53748 5.61934 9.41308C5.70875 9.32366 5.73856 9.20444 5.73856 9.08263C5.73856 8.93361 5.73856 8.78458 5.73856 8.63556C5.73856 8.01743 5.73856 7.398 5.73856 6.77987C5.73856 6.05419 5.73856 5.3285 5.73856 4.60411C5.73856 4.15833 5.73856 3.71126 5.73856 3.26548C5.73856 3.24474 5.73856 3.22272 5.73856 3.20198C5.73856 3.06592 5.61934 2.93633 5.47939 2.94281C5.33943 2.94799 5.22021 3.05555 5.22021 3.20069Z" fill="#BCBCBF"/>
    <path d="M8.35098 0.410646C8.35098 0.518203 8.35098 0.624464 8.35098 0.732022C8.35098 1.01841 8.35098 1.3035 8.35098 1.58989C8.35098 1.99938 8.35098 2.40758 8.35098 2.81707C8.35098 3.29914 8.35098 3.7812 8.35098 4.26326C8.35098 4.76347 8.35098 5.26367 8.35098 5.76388C8.35098 6.2278 8.35098 6.69301 8.35098 7.15694C8.35098 7.53144 8.35098 7.90724 8.35098 8.28175C8.35098 8.51371 8.35098 8.74437 8.35098 8.97633C8.35098 9.02169 8.34579 9.07093 8.35098 9.11499C8.35098 9.11758 8.34968 9.12147 8.35098 9.12406C8.3445 9.1111 8.36653 9.06834 8.37171 9.05927C8.36394 9.07352 8.35357 9.07482 8.37301 9.06056C8.37689 9.05797 8.43002 9.01391 8.40281 9.03076C8.37949 9.04501 8.42614 9.02039 8.42614 9.02039C8.42743 9.02039 8.46113 9.01521 8.45983 9.01521C8.43391 9.00095 8.36264 9.01521 8.33413 9.01521C7.91686 9.01521 7.4983 9.01521 7.08103 9.01521C7.06418 9.01521 7.04474 9.01262 7.02919 9.01521C7.00716 9.0191 7.06936 9.02687 7.07455 9.02817C7.10306 9.03465 7.08621 9.03594 7.07584 9.02687C7.09787 9.04242 7.10824 9.05279 7.12249 9.07352C7.11472 9.06186 7.11602 9.04631 7.1212 9.07482C7.12509 9.09167 7.14582 9.10333 7.13416 9.12406C7.13675 9.12018 7.13416 9.10592 7.13416 9.10203C7.13545 9.04761 7.13416 8.99188 7.13416 8.93746C7.13416 8.68995 7.13416 8.44373 7.13416 8.19622C7.13416 7.81135 7.13416 7.42518 7.13416 7.04031C7.13416 6.56991 7.13416 6.1008 7.13416 5.6304C7.13416 5.1302 7.13416 4.6287 7.13416 4.12849C7.13416 3.65291 7.13416 3.17603 7.13416 2.70044C7.13416 2.29873 7.13416 1.89701 7.13416 1.49529C7.13416 1.22316 7.13416 0.951023 7.13416 0.678891C7.13416 0.608914 7.13416 0.537641 7.13416 0.467664C7.13416 0.452114 7.13675 0.435268 7.13416 0.419717C7.13416 0.417126 7.13545 0.413238 7.13416 0.410646L7.12897 0.445635C7.12897 0.445635 7.10306 0.492286 7.11861 0.46896C7.13545 0.441747 7.09269 0.494878 7.0888 0.498765C7.07455 0.518203 7.07584 0.509132 7.0901 0.500061C7.08103 0.505245 7.03956 0.525978 7.0253 0.520795C7.03438 0.524683 7.05641 0.520795 7.06677 0.520795C7.09787 0.520795 7.12897 0.520795 7.15878 0.520795C7.25726 0.520795 7.35575 0.520795 7.45424 0.520795C7.69268 0.520795 7.93112 0.520795 8.16826 0.520795C8.24601 0.520795 8.32376 0.520795 8.40152 0.520795C8.41836 0.520795 8.4378 0.523387 8.45465 0.520795C8.46372 0.519499 8.4689 0.527274 8.44428 0.518203C8.42743 0.511724 8.41318 0.510428 8.39633 0.500061C8.43391 0.522091 8.38856 0.492286 8.38337 0.488398C8.37949 0.484511 8.34968 0.437859 8.37171 0.47544C8.35875 0.45341 8.35227 0.436564 8.35098 0.410646C8.35875 0.545416 8.46501 0.676299 8.61015 0.66982C8.74362 0.66334 8.8771 0.555783 8.86932 0.410646C8.85637 0.174798 8.68272 0.00503949 8.44558 0.00115188C8.38337 -0.000143985 8.31988 0.00115188 8.25767 0.00115188C8.02053 0.00115188 7.78209 0.00115188 7.54495 0.00115188C7.37519 0.00115188 7.20543 -0.00143985 7.03697 0.00115188C6.79075 0.00503949 6.61711 0.191645 6.61581 0.433972C6.61451 0.597251 6.61581 0.760531 6.61581 0.925106C6.61581 1.25944 6.61581 1.59377 6.61581 1.9294C6.61581 2.37518 6.61581 2.82226 6.61581 3.26803C6.61581 3.77213 6.61581 4.27752 6.61581 4.78161C6.61581 5.28311 6.61581 5.78591 6.61581 6.28741C6.61581 6.73448 6.61581 7.18156 6.61581 7.62734C6.61581 7.95908 6.61581 8.28952 6.61581 8.62127C6.61581 8.78195 6.61451 8.94394 6.61581 9.10462C6.61711 9.34825 6.79594 9.53096 7.04085 9.53356C7.21709 9.53615 7.39333 9.53356 7.56957 9.53356C7.80542 9.53356 8.03997 9.53356 8.27582 9.53356C8.33413 9.53356 8.39244 9.53485 8.45076 9.53356C8.68142 9.52967 8.86284 9.35732 8.86932 9.12406C8.87321 9.01003 8.86932 8.89469 8.86932 8.78066C8.86932 8.4839 8.86932 8.18585 8.86932 7.8891C8.86932 7.46276 8.86932 7.03771 8.86932 6.61137C8.86932 6.11765 8.86932 5.62392 8.86932 5.1289C8.86932 4.61963 8.86932 4.11035 8.86932 3.60107C8.86932 3.13715 8.86932 2.67323 8.86932 2.20931C8.86932 1.84388 8.86932 1.47844 8.86932 1.11301C8.86932 0.905668 8.86932 0.698329 8.86932 0.492286C8.86932 0.465073 8.86932 0.437859 8.86932 0.410646C8.86932 0.27458 8.7501 0.144993 8.61015 0.151473C8.4689 0.157952 8.35098 0.265509 8.35098 0.410646Z" fill="#BCBCBF"/>
    <path d="M11.4804 1.75577C11.4804 1.85037 11.4804 1.94627 11.4804 2.04086C11.4804 2.29485 11.4804 2.55014 11.4804 2.80413C11.4804 3.16568 11.4804 3.52852 11.4804 3.89007C11.4804 4.31122 11.4804 4.73368 11.4804 5.15483C11.4804 5.58765 11.4804 6.01918 11.4804 6.452C11.4804 6.84724 11.4804 7.24377 11.4804 7.63901C11.4804 7.94484 11.4804 8.25196 11.4804 8.55778C11.4804 8.72754 11.4804 8.8973 11.4804 9.06706C11.4804 9.08261 11.4791 9.09816 11.4804 9.11371C11.4804 9.1163 11.4791 9.12019 11.4804 9.12278V9.12408C11.4739 9.11371 11.4907 9.08391 11.4933 9.07484C11.5024 9.04503 11.4998 9.06447 11.492 9.07354C11.5024 9.05928 11.5141 9.04892 11.5257 9.03725C11.5413 9.02559 11.5439 9.0243 11.5322 9.03078C11.5154 9.03985 11.5231 9.03596 11.5555 9.02041C11.584 9.01134 11.6022 9.01652 11.5711 9.01522C11.5504 9.01393 11.5309 9.01522 11.5102 9.01522C11.4363 9.01522 11.3612 9.01522 11.2873 9.01522C10.9232 9.01522 10.5577 9.01522 10.1936 9.01522C10.1832 9.01522 10.1677 9.01263 10.1573 9.01522C10.1638 9.01263 10.2052 9.02689 10.2195 9.03596C10.2078 9.02948 10.2001 9.01652 10.2182 9.03725C10.2299 9.05021 10.2415 9.05928 10.2519 9.07354C10.2441 9.06188 10.2454 9.04633 10.2506 9.07484C10.2545 9.09168 10.2752 9.10464 10.2636 9.12408C10.2662 9.12019 10.2636 9.10853 10.2636 9.10334C10.2649 9.0541 10.2636 9.00486 10.2636 8.95691C10.2636 8.73661 10.2636 8.51632 10.2636 8.29602C10.2636 7.9552 10.2636 7.61569 10.2636 7.27487C10.2636 6.86279 10.2636 6.452 10.2636 6.03991C10.2636 5.6058 10.2636 5.17168 10.2636 4.73757C10.2636 4.32807 10.2636 3.91858 10.2636 3.50908C10.2636 3.17734 10.2636 2.8456 10.2636 2.51386C10.2636 2.30652 10.2636 2.09918 10.2636 1.89184C10.2636 1.85167 10.2687 1.80631 10.2636 1.76614C10.2636 1.76355 10.2649 1.75966 10.2636 1.75707C10.2623 1.75318 10.2584 1.79076 10.2584 1.79076C10.2584 1.79076 10.2325 1.83741 10.248 1.81409C10.2636 1.78947 10.2312 1.83482 10.2325 1.83353C10.2325 1.83353 10.1884 1.86463 10.213 1.84908C10.2299 1.83871 10.1793 1.85944 10.1728 1.86203C10.1456 1.87111 10.1599 1.86463 10.1767 1.86463C10.1988 1.86592 10.2208 1.86463 10.2428 1.86463C10.6199 1.86463 10.9983 1.86463 11.3754 1.86463C11.4337 1.86463 11.492 1.86463 11.5517 1.86463C11.562 1.86463 11.5802 1.86851 11.5905 1.86463C11.5957 1.86333 11.5504 1.85426 11.5439 1.85167C11.5141 1.8426 11.5335 1.84519 11.5426 1.85296C11.5283 1.8426 11.518 1.83093 11.5063 1.81927C11.4856 1.80113 11.4972 1.80761 11.505 1.82057C11.4882 1.79983 11.4817 1.78169 11.4804 1.75577C11.4882 1.89054 11.5944 2.02143 11.7396 2.01495C11.873 2.00847 12.0065 1.90091 11.9987 1.75577C11.9858 1.52511 11.8173 1.35405 11.584 1.34628C11.54 1.34498 11.4959 1.34628 11.4519 1.34628C11.2588 1.34628 11.0644 1.34628 10.8713 1.34628C10.6782 1.34628 10.4839 1.34628 10.2908 1.34628C10.2467 1.34628 10.2027 1.34498 10.1586 1.34628C9.92793 1.35276 9.75299 1.52381 9.74392 1.75577C9.74003 1.85556 9.74392 1.95534 9.74392 2.05512C9.74392 2.31948 9.74392 2.58254 9.74392 2.84689C9.74392 3.2227 9.74392 3.5985 9.74392 3.9743C9.74392 4.40841 9.74392 4.84383 9.74392 5.27794C9.74392 5.71854 9.74392 6.16043 9.74392 6.60102C9.74392 6.99626 9.74392 7.39021 9.74392 7.78545C9.74392 8.0809 9.74392 8.37766 9.74392 8.67312C9.74392 8.81696 9.74262 8.96209 9.74392 9.10594C9.74651 9.34438 9.91886 9.52709 10.1599 9.53357C10.2921 9.53746 10.4255 9.53357 10.559 9.53357C10.9011 9.53357 11.2445 9.54523 11.5866 9.53357C11.8277 9.5258 11.9974 9.34049 12 9.10334C12 9.05151 12 8.99967 12 8.94914C12 8.71977 12 8.4904 12 8.26103C12 7.90726 12 7.55349 12 7.20101C12 6.77597 12 6.35092 12 5.92458C12 5.4801 12 5.03561 12 4.59113C12 4.18034 12 3.76955 12 3.35876C12 3.03479 12 2.70953 12 2.38557C12 2.20026 12 2.01365 12 1.82834C12 1.80372 12 1.7791 12 1.75577C12 1.61971 11.8808 1.49012 11.7408 1.4966C11.5996 1.50308 11.4804 1.61064 11.4804 1.75577Z" fill="#BCBCBF"/>
    <path d="M2.0905 4.69718C2.0905 4.95376 2.0905 5.20905 2.0905 5.46563C2.0905 6.01378 2.0905 6.56193 2.0905 7.11138C2.0905 7.62195 2.0905 8.13253 2.0905 8.64439C2.0905 8.78305 2.0905 8.92041 2.0905 9.05907C2.0905 9.07333 2.08272 9.1122 2.0905 9.12386C2.0905 9.13553 2.0918 9.12386 2.09568 9.08888C2.09828 9.0811 2.12678 9.03834 2.10216 9.07332C2.11642 9.05259 2.12678 9.04222 2.14881 9.02667C2.10994 9.05389 2.1851 9.00335 2.19935 9.01501C2.19806 9.01501 2.19547 9.01501 2.19417 9.01501C2.17214 9.01112 2.14752 9.01501 2.12549 9.01501C1.88057 9.01501 1.63565 9.01501 1.39073 9.01501C1.25855 9.01501 1.12637 9.01501 0.994196 9.01501C0.921627 9.01501 0.845171 9.00724 0.772602 9.01501C0.771307 9.01501 0.763531 9.01372 0.762235 9.01501C0.772602 9.00594 0.824437 9.03315 0.827029 9.03575C0.807591 9.02538 0.804999 9.01372 0.839988 9.04741C0.843875 9.0513 0.87368 9.09795 0.85165 9.06037C0.859426 9.07332 0.88016 9.1122 0.872384 9.12516C0.87368 9.12257 0.872384 9.1135 0.872384 9.10961C0.874976 9.07332 0.872384 9.03574 0.872384 8.99946C0.872384 8.83877 0.872384 8.67679 0.872384 8.5161C0.872384 7.98739 0.872384 7.45997 0.872384 6.93126C0.872384 6.39736 0.872384 5.86476 0.872384 5.33086C0.872384 5.16628 0.872384 5.00041 0.872384 4.83584C0.872384 4.79696 0.87368 4.75809 0.872384 4.71921C0.872384 4.71403 0.874976 4.70366 0.872384 4.69977C0.872384 4.69848 0.867201 4.73346 0.867201 4.73346C0.850355 4.78659 0.849059 4.76456 0.860722 4.74901C0.845171 4.77104 0.834804 4.78141 0.81407 4.79567C0.849059 4.77104 0.806295 4.79955 0.79852 4.80215C-0.975523 5.36196 0.759644 4.80474 0.763531 4.80733C0.764827 4.80862 0.767419 4.80733 0.768715 4.80733C0.832212 4.81769 0.907373 4.80733 0.97087 4.80733C1.10046 4.80733 1.23004 4.80733 1.35963 4.80733C1.61103 4.80733 1.86243 4.80733 2.11253 4.80733C2.13715 4.80733 2.16307 4.80992 2.18769 4.80733C2.19028 4.80733 2.19676 4.80862 2.19935 4.80733C2.17862 4.81899 2.16566 4.79826 2.15011 4.79437C2.14493 4.79178 2.13974 4.78919 2.13456 4.78659C2.154 4.79826 2.154 4.79696 2.13586 4.7853C2.13197 4.78141 2.0892 4.72828 2.10605 4.75549C2.11901 4.77493 2.0905 4.70495 2.0905 4.69718C2.09828 4.83195 2.20454 4.96283 2.34967 4.95635C2.48315 4.94987 2.61662 4.84232 2.60885 4.69718C2.59459 4.45096 2.41058 4.28769 2.16696 4.28769C2.07236 4.28769 1.97906 4.28769 1.88446 4.28769C1.59937 4.28769 1.31428 4.28769 1.02918 4.28769C0.946249 4.28769 0.863313 4.28639 0.780378 4.28769C0.54453 4.29028 0.363108 4.46004 0.354037 4.69718C0.351445 4.78012 0.354037 4.86305 0.354037 4.94599C0.354037 5.42287 0.354037 5.89975 0.354037 6.37662C0.354037 6.95977 0.354037 7.54291 0.354037 8.12734C0.354037 8.4539 0.35015 8.78175 0.354037 9.10831C0.356629 9.30269 0.479736 9.48023 0.676708 9.5217C0.753164 9.53725 0.832212 9.53206 0.908669 9.53206C1.18339 9.53206 1.45941 9.53206 1.73414 9.53206C1.85336 9.53206 1.97258 9.53206 2.0918 9.53206C2.20454 9.53206 2.30691 9.53336 2.41058 9.47375C2.60626 9.36101 2.60885 9.16274 2.60885 8.97225C2.60885 8.53295 2.60885 8.09365 2.60885 7.65435C2.60885 7.06603 2.60885 6.479 2.60885 5.89067C2.60885 5.51098 2.60885 5.1313 2.60885 4.7529C2.60885 4.73476 2.60885 4.71532 2.60885 4.69718C2.60885 4.56111 2.48963 4.43153 2.34967 4.43801C2.20972 4.44449 2.0905 4.55204 2.0905 4.69718Z" fill="#BCBCBF"/>
</svg>
